<svg width="77" height="73" viewBox="0 0 77 73" fill="none" xmlns="http://www.w3.org/2000/svg">
<mask id="path-1-inside-1" fill="white">
<rect y="6" width="47" height="60" rx="1"/>
</mask>
<rect y="6" width="47" height="60" rx="1" stroke="#170224" stroke-width="6" mask="url(#path-1-inside-1)"/>
<mask id="path-2-inside-2" fill="white">
<rect y="6" width="24" height="60" rx="1"/>
</mask>
<rect y="6" width="24" height="60" rx="1" stroke="#170224" stroke-width="6" mask="url(#path-2-inside-2)"/>
<mask id="path-3-inside-3" fill="white">
<rect x="53" width="24" height="71" rx="1"/>
</mask>
<rect x="53" width="24" height="71" rx="1" stroke="#170224" stroke-width="6" mask="url(#path-3-inside-3)"/>
<path d="M45.5 8L54.5 1.5" stroke="#170224" stroke-width="3"/>
<path d="M45 64L54.5 69.5" stroke="#170224" stroke-width="3"/>
<mask id="path-6-inside-4" fill="white">
<rect x="53" y="59" width="24" height="12" rx="1"/>
</mask>
<rect x="53" y="59" width="24" height="12" rx="1" stroke="#170224" stroke-width="6" mask="url(#path-6-inside-4)"/>
<mask id="path-7-inside-5" fill="white">
<rect x="53" y="50" width="24" height="12" rx="1"/>
</mask>
<rect x="53" y="50" width="24" height="12" rx="1" stroke="#170224" stroke-width="6" mask="url(#path-7-inside-5)"/>
<mask id="path-8-inside-6" fill="white">
<rect x="53" width="24" height="12" rx="1"/>
</mask>
<rect x="53" width="24" height="12" rx="1" stroke="#170224" stroke-width="6" mask="url(#path-8-inside-6)"/>
<mask id="path-9-inside-7" fill="white">
<rect y="54" width="24" height="12" rx="1"/>
</mask>
<rect y="54" width="24" height="12" rx="1" stroke="#170224" stroke-width="6" mask="url(#path-9-inside-7)"/>
<mask id="path-10-inside-8" fill="white">
<rect x="21" y="45" width="26" height="21" rx="1"/>
</mask>
<rect x="21" y="45" width="26" height="21" rx="1" stroke="#170224" stroke-width="6" mask="url(#path-10-inside-8)"/>
<path d="M8 15.5V44.5" stroke="#170224" stroke-width="3"/>
<path d="M4 66V68" stroke="#170224" stroke-width="3"/>
<path d="M43 66V68" stroke="#170224" stroke-width="3"/>
<path d="M57 71V73" stroke="#170224" stroke-width="3"/>
<path d="M73 71V73" stroke="#170224" stroke-width="3"/>
<path d="M16 15.5V44.5" stroke="#170224" stroke-width="3"/>
<path d="M30 52H38" stroke="#170224" stroke-width="3"/>
<path d="M50 39L50 34" stroke="#170224" stroke-width="3"/>
<path d="M1 15H23" stroke="#170224" stroke-width="3"/>
</svg>
