<svg width="82" height="91" viewBox="0 0 82 91" fill="none" xmlns="http://www.w3.org/2000/svg">
<path d="M24.7192 75.845L32.9725 62.3792" stroke="#170224" stroke-width="3"/>
<path d="M66.42 63.6823L61.2074 55.429" stroke="#170224" stroke-width="3"/>
<path d="M37.52 62.8134L23.8345 86.2845L16.8491 74.0582L3.00093 74.9906L16.4356 51.9539" stroke="#170224" stroke-width="3"/>
<path d="M42.3101 62.8135L57.733 87.1534L63.8497 74.0583L78.5666 74.1219L63.3945 51.0852" stroke="#170224" stroke-width="3"/>
<circle cx="40.3569" cy="32.4067" r="30.4067" stroke="#170224" stroke-width="3"/>
<circle cx="40.3569" cy="32.4067" r="25.1942" stroke="#170224" stroke-width="3"/>
<rect x="28.8254" y="26.9565" width="7.42517" height="3.95011" rx="1.97506" stroke="#170224" stroke-width="3"/>
<rect x="28.8254" y="39.988" width="7.42517" height="3.95011" rx="1.97506" stroke="#170224" stroke-width="3"/>
<rect x="27.9569" y="31.3005" width="9.16269" height="3.95011" rx="1.97506" stroke="#170224" stroke-width="3"/>
<path d="M33.407 26.7597L39.024 25.2619C39.5305 25.1268 39.8468 24.6235 39.7487 24.1085L38.2842 16.4201C38.2223 16.0949 38.3253 15.76 38.5595 15.5259L39.8228 14.2626C40.3018 13.7835 41.1086 13.9095 41.4189 14.5117L47.9895 27.2665C48.109 27.4986 48.3146 27.6747 48.5622 27.7572L52.7048 29.1381C53.1131 29.2742 53.3886 29.6563 53.3886 30.0868V40.9631C53.3886 41.5154 52.9408 41.9631 52.3886 41.9631H50.0447C49.4924 41.9631 49.0078 42.439 48.6624 42.87C48.1853 43.4655 47.1126 44.135 44.7009 44.135C40.3571 44.135 33.8414 44.135 33.8414 44.135" stroke="#170224" stroke-width="3"/>
<path d="M49.9134 38.0538L49.0447 42.1261" stroke="#170224" stroke-width="3"/>
<path d="M48.1757 27.6285C49.4788 31.1036 47.7413 34.1443 45.135 35.013" stroke="#170224" stroke-width="3"/>
<rect x="27.9569" y="35.6442" width="9.16269" height="3.95011" rx="1.97506" stroke="#170224" stroke-width="3"/>
</svg>
