<svg width="24" height="24" viewBox="0 0 24 24" fill="none" xmlns="http://www.w3.org/2000/svg">
<circle opacity="0.35" cx="12" cy="12" r="12" fill="#BAB0BF"/>
<path d="M13.709 4.45508C14.1126 4.45508 14.4512 4.59505 14.7246 4.875C15.0046 5.15495 15.1445 5.49349 15.1445 5.89062C15.1445 6.28776 15.0046 6.6263 14.7246 6.90625C14.4447 7.1862 14.1061 7.32617 13.709 7.32617C13.3184 7.32617 12.9831 7.1862 12.7031 6.90625C12.4232 6.6263 12.2832 6.28776 12.2832 5.89062C12.2832 5.49349 12.4199 5.15495 12.6934 4.875C12.9733 4.59505 13.3118 4.45508 13.709 4.45508ZM14.3145 8.94727L12.3125 15.8906C12.2018 16.2878 12.1465 16.5482 12.1465 16.6719C12.1465 16.7435 12.1758 16.8118 12.2344 16.877C12.293 16.9355 12.3548 16.9648 12.4199 16.9648C12.5306 16.9648 12.6413 16.916 12.752 16.8184C13.0449 16.5775 13.3965 16.1413 13.8066 15.5098L14.1387 15.7051C13.1556 17.4173 12.1107 18.2734 11.0039 18.2734C10.5807 18.2734 10.2422 18.1562 9.98828 17.9219C9.74089 17.681 9.61719 17.3783 9.61719 17.0137C9.61719 16.7728 9.67253 16.4668 9.7832 16.0957L11.1406 11.4277C11.2708 10.9785 11.3359 10.64 11.3359 10.4121C11.3359 10.2689 11.2741 10.1419 11.1504 10.0312C11.0267 9.92057 10.8574 9.86523 10.6426 9.86523C10.5449 9.86523 10.4277 9.86849 10.291 9.875L10.418 9.48438L13.7285 8.94727H14.3145Z" fill="#FDFBFE"/>
</svg>
