<svg width="78" height="76" viewBox="0 0 78 76" fill="none" xmlns="http://www.w3.org/2000/svg">
<path d="M61.1203 71.002L22.3777 32.2594C22.1288 32.0104 21.7716 31.9093 21.427 31.9816C19.1088 32.4683 10.0376 34.0126 5.53417 29.5091C1.69734 25.6723 1.82225 18.948 2.14789 15.7041C2.22782 14.9079 3.16313 14.6107 3.72897 15.1766L10.6045 22.0521C10.8583 22.3059 11.2286 22.4042 11.5748 22.3098L19.0761 20.2639C19.4178 20.1708 19.6846 19.9039 19.7778 19.5623L21.8236 12.0609C21.9181 11.7147 21.8197 11.3444 21.566 11.0907L14.6904 4.21512C14.1246 3.64927 14.4217 2.71396 15.2179 2.63403C18.4619 2.3084 25.1861 2.18349 29.023 6.02032C33.5264 10.5238 31.9821 19.595 31.4955 21.9132C31.4232 22.2577 31.5243 22.6149 31.7732 22.8639L70.5159 61.6065L70.5208 61.6115C70.6041 61.6972 75.9031 67.1886 71.3028 71.7889C66.7026 76.3892 61.2111 71.0903 61.1253 71.0069L61.1203 71.002Z" stroke="#170224" stroke-width="3"/>
<path d="M30.115 40.8729L8.97902 62.0088C8.97639 62.0115 8.97668 62.0111 8.97408 62.0138C8.8907 62.0996 3.59187 67.591 8.19212 72.1913C12.7924 76.7916 18.2838 71.4926 18.3696 71.4093C18.3722 71.4067 18.3719 71.407 18.3745 71.4043L39.5105 50.2684" stroke="#170224" stroke-width="3"/>
<path d="M49.3792 40.4705L51.0209 38.8287C51.4114 38.4382 51.4114 37.8051 51.0209 37.4145L47.0303 33.4239L43.0396 29.4332C42.6491 29.0427 42.0159 29.0427 41.6254 29.4332L39.9836 31.075" stroke="#170224" stroke-width="3"/>
<path d="M48.988 35.3812L45.0732 31.4664L64.426 13.0669L65.4302 9.07381L74.4342 4.45435L76.0001 6.02026L71.3807 15.0243L67.3876 16.0285L48.988 35.3812Z" stroke="#170224" stroke-width="3"/>
<path d="M15.712 61.6105L33.3286 43.6025" stroke="#170224" stroke-width="3"/>
<path d="M27.4565 56.1298L37.2435 45.9513" stroke="#170224" stroke-width="3"/>
<path d="M27.0656 30.6835L65.0391 68.6571C65.0391 68.6571 66.605 70.223 68.1709 68.6571C69.7368 67.0911 67.7794 65.1337 67.7794 65.1337" stroke="#170224" stroke-width="3"/>
</svg>
