<svg width="54" height="54" viewBox="0 0 54 54" fill="none" xmlns="http://www.w3.org/2000/svg">
<rect width="54" height="54" rx="14" fill="#15AD40"/>
<path d="M41.199 36.5069L37.1062 40.5996C36.8579 40.848 36.5008 40.9475 36.1666 40.8391C34.3737 40.2577 28.3485 37.9367 21.7059 31.2941C15.0633 24.6515 12.7423 18.6263 12.1609 16.8334C12.0525 16.4992 12.152 16.1421 12.4004 15.8938L16.4931 11.801C16.9184 11.3757 17.6203 11.4194 17.9896 11.8942L22.9286 18.2443C23.2382 18.6424 23.203 19.2088 22.8464 19.5654L21.3632 21.0485C21.0445 21.3672 20.9785 21.8586 21.2113 22.2446C21.9619 23.4891 23.6772 26.2066 25.2353 27.7647C26.7934 29.3228 29.5109 31.0381 30.7554 31.7887C31.1414 32.0215 31.6328 31.9555 31.9515 31.6368L33.4346 30.1536C33.7912 29.797 34.3576 29.7618 34.7556 30.0714L41.1058 35.0104C41.5806 35.3797 41.6243 36.0816 41.199 36.5069Z" stroke="white" stroke-width="3"/>
</svg>
