<svg width="75" height="79" viewBox="0 0 75 79" fill="none" xmlns="http://www.w3.org/2000/svg">
<path d="M8.92651 15.0549H23.646" stroke="#170224" stroke-width="3"/>
<path d="M2.43293 15.0549C2.43293 15.0549 2.2728 21.9818 10.6585 21.9818C28.5829 21.9818 53.906 21.9818 66.0175 21.9818C69.8835 21.9818 73 25.1158 73 28.9818V69.5306C73 73.3965 69.866 76.5305 66 76.5305H9.04947C5.16421 76.5305 2.02228 73.3664 2.04964 69.4813L2.43293 15.0549Z" stroke="#170224" stroke-width="3"/>
<path d="M32.3048 8.99377C32.3048 8.99377 32.1096 8.99377 9.79262 8.99377C2.86579 8.99377 2.43286 15.4877 2.43286 15.4877L2.43286 20.6828" stroke="#170224" stroke-width="3"/>
<path d="M55.6829 8.99377H66.939V21.9816" stroke="#170224" stroke-width="3"/>
<path d="M13.2566 21.9817L42.6956 2.5L55.2505 21.9817" stroke="#170224" stroke-width="3"/>
<path d="M44.8594 7.69508L53.9508 3.79874L61.7435 21.9817" stroke="#170224" stroke-width="3"/>
<path d="M6.7124 27.1769L66.9388 27.1769" stroke="#170224" stroke-width="3"/>
<circle cx="61.7437" cy="49.689" r="3.69512" stroke="#170224" stroke-width="3"/>
</svg>
