<svg width="79" height="78" viewBox="0 0 79 78" fill="none" xmlns="http://www.w3.org/2000/svg">
<rect x="77.4211" y="52.9511" width="17.8179" height="70.6634" rx="5.5" transform="rotate(90 77.4211 52.9511)" fill="#F8F6F9" stroke="#170224" stroke-width="3"/>
<path d="M27.2766 52.6519L27.2766 71.0677" stroke="#170224" stroke-width="3"/>
<circle cx="16.4668" cy="61.8599" r="2.50345" transform="rotate(90 16.4668 61.8599)" fill="#F8F6F9" stroke="#170224" stroke-width="3"/>
<rect x="64.1665" y="25.0622" width="17.8179" height="70.6634" rx="5.5" transform="rotate(60 64.1665 25.0622)" fill="#F8F6F9" stroke="#170224" stroke-width="3"/>
<path d="M20.5903 49.8757L29.7983 65.8243" stroke="#170224" stroke-width="3"/>
<circle cx="15.8335" cy="63.2545" r="2.50345" transform="rotate(60 15.8335 63.2545)" fill="#F8F6F9" stroke="#170224" stroke-width="3"/>
<rect x="38.9582" y="5.78262" width="17.8179" height="70.6634" rx="5.5" transform="rotate(30 38.9582 5.78262)" fill="#F8F6F9" stroke="#170224" stroke-width="3"/>
<path d="M13.6282 49.0594L29.5768 58.2674" stroke="#170224" stroke-width="3"/>
<circle cx="16.1978" cy="63.0244" r="2.50345" transform="rotate(30 16.1978 63.0244)" fill="#F8F6F9" stroke="#170224" stroke-width="3"/>
<rect x="7.28784" y="1.5" width="17.8179" height="70.6634" rx="5.5" fill="#F8F6F9" stroke="#170224" stroke-width="3"/>
<path d="M6.98877 51.6445H25.4046" stroke="#170224" stroke-width="3"/>
<circle cx="16.1973" cy="62.4536" r="2.50345" fill="#F8F6F9" stroke="#170224" stroke-width="3"/>
</svg>
